<svg xmlns="http://www.w3.org/2000/svg" xmlns:xlink="http://www.w3.org/1999/xlink" width="500" zoomAndPan="magnify" viewBox="0 0 375 374.999991" height="500" preserveAspectRatio="xMidYMid meet" version="1.0"><defs><g/><clipPath id="afd4e18903"><path d="M 9 123.90625 L 118 123.90625 L 118 173 L 9 173 Z M 9 123.90625 " clip-rule="nonzero"/></clipPath><clipPath id="5d269c32c5"><path d="M 34 159 L 61 159 L 61 251.40625 L 34 251.40625 Z M 34 159 " clip-rule="nonzero"/></clipPath><clipPath id="15596e0924"><path d="M 66 159 L 93 159 L 93 251.40625 L 66 251.40625 Z M 66 159 " clip-rule="nonzero"/></clipPath></defs><g fill="#000000" fill-opacity="1"><g transform="translate(149.81056, 181.378105)"><g><path d="M 3.65625 0 L 3.65625 -37.75 L 13.515625 -37.75 L 13.515625 -22.359375 L 28.765625 -22.359375 L 28.765625 -37.75 L 38.625 -37.75 L 38.625 0 L 28.765625 0 L 28.765625 -14.484375 L 13.515625 -14.484375 L 13.515625 0 Z M 3.65625 0 "/></g></g></g><g fill="#000000" fill-opacity="1"><g transform="translate(192.080678, 181.378105)"><g><path d="M 21.65625 -38.34375 C 25.5 -38.34375 28.972656 -37.5 32.078125 -35.8125 C 35.179688 -34.125 37.617188 -31.804688 39.390625 -28.859375 C 41.171875 -25.921875 42.0625 -22.617188 42.0625 -18.953125 C 42.0625 -15.253906 41.171875 -11.914062 39.390625 -8.9375 C 37.617188 -5.957031 35.179688 -3.601562 32.078125 -1.875 C 28.972656 -0.15625 25.5 0.703125 21.65625 0.703125 C 17.8125 0.703125 14.335938 -0.148438 11.234375 -1.859375 C 8.128906 -3.566406 5.6875 -5.914062 3.90625 -8.90625 C 2.125 -11.90625 1.234375 -15.253906 1.234375 -18.953125 C 1.234375 -22.617188 2.125 -25.921875 3.90625 -28.859375 C 5.6875 -31.804688 8.128906 -34.125 11.234375 -35.8125 C 14.335938 -37.5 17.8125 -38.34375 21.65625 -38.34375 Z M 21.765625 -30 C 19.890625 -30 18.15625 -29.515625 16.5625 -28.546875 C 14.96875 -27.578125 13.703125 -26.238281 12.765625 -24.53125 C 11.828125 -22.820312 11.359375 -20.945312 11.359375 -18.90625 C 11.359375 -16.820312 11.832031 -14.925781 12.78125 -13.21875 C 13.738281 -11.519531 15.003906 -10.175781 16.578125 -9.1875 C 18.160156 -8.195312 19.890625 -7.703125 21.765625 -7.703125 C 23.628906 -7.703125 25.34375 -8.195312 26.90625 -9.1875 C 28.46875 -10.175781 29.695312 -11.519531 30.59375 -13.21875 C 31.488281 -14.925781 31.9375 -16.820312 31.9375 -18.90625 C 31.9375 -20.945312 31.488281 -22.820312 30.59375 -24.53125 C 29.695312 -26.238281 28.46875 -27.578125 26.90625 -28.546875 C 25.34375 -29.515625 23.628906 -30 21.765625 -30 Z M 21.765625 -30 "/></g></g></g><g fill="#000000" fill-opacity="1"><g transform="translate(235.373896, 181.378105)"><g><path d="M 29.671875 -26.390625 C 27.660156 -27.578125 25.515625 -28.546875 23.234375 -29.296875 C 20.953125 -30.054688 19.039062 -30.4375 17.5 -30.4375 C 16.28125 -30.4375 15.320312 -30.207031 14.625 -29.75 C 13.925781 -29.300781 13.578125 -28.648438 13.578125 -27.796875 C 13.578125 -26.960938 13.878906 -26.269531 14.484375 -25.71875 C 15.097656 -25.164062 15.851562 -24.71875 16.75 -24.375 C 17.644531 -24.03125 18.972656 -23.585938 20.734375 -23.046875 C 23.359375 -22.296875 25.519531 -21.539062 27.21875 -20.78125 C 28.925781 -20.03125 30.390625 -18.875 31.609375 -17.3125 C 32.835938 -15.75 33.453125 -13.710938 33.453125 -11.203125 C 33.453125 -8.691406 32.785156 -6.546875 31.453125 -4.765625 C 30.128906 -2.984375 28.304688 -1.644531 25.984375 -0.75 C 23.671875 0.144531 21.097656 0.59375 18.265625 0.59375 C 15.140625 0.59375 12.019531 0.046875 8.90625 -1.046875 C 5.800781 -2.140625 3.117188 -3.640625 0.859375 -5.546875 L 4.6875 -13.25 C 6.59375 -11.5625 8.84375 -10.175781 11.4375 -9.09375 C 14.039062 -8.019531 16.347656 -7.484375 18.359375 -7.484375 C 19.835938 -7.484375 21 -7.753906 21.84375 -8.296875 C 22.6875 -8.835938 23.109375 -9.628906 23.109375 -10.671875 C 23.109375 -11.523438 22.789062 -12.238281 22.15625 -12.8125 C 21.53125 -13.394531 20.738281 -13.851562 19.78125 -14.1875 C 18.832031 -14.53125 17.5 -14.9375 15.78125 -15.40625 C 13.195312 -16.125 11.0625 -16.847656 9.375 -17.578125 C 7.6875 -18.316406 6.238281 -19.429688 5.03125 -20.921875 C 3.832031 -22.410156 3.234375 -24.394531 3.234375 -26.875 C 3.234375 -29.207031 3.851562 -31.253906 5.09375 -33.015625 C 6.332031 -34.773438 8.085938 -36.128906 10.359375 -37.078125 C 12.640625 -38.035156 15.289062 -38.515625 18.3125 -38.515625 C 21.039062 -38.515625 23.734375 -38.125 26.390625 -37.34375 C 29.046875 -36.570312 31.378906 -35.539062 33.390625 -34.25 Z M 29.671875 -26.390625 "/></g></g></g><g fill="#000000" fill-opacity="1"><g transform="translate(270.159241, 181.378105)"><g><path d="M 0.375 -29.625 L 0.375 -37.75 L 32.75 -37.75 L 32.75 -29.625 L 21.4375 -29.625 L 21.4375 0 L 11.578125 0 L 11.578125 -29.625 Z M 0.375 -29.625 "/></g></g></g><g fill="#000000" fill-opacity="1"><g transform="translate(303.221471, 181.378105)"><g><path d="M 3.65625 0 L 3.65625 -37.75 L 33.453125 -37.75 L 33.453125 -29.890625 L 13.515625 -29.890625 L 13.515625 -22.84375 L 31.5 -22.84375 L 31.5 -15.03125 L 13.515625 -14.96875 L 13.515625 -7.859375 L 33.984375 -7.859375 L 33.984375 0 Z M 3.65625 0 "/></g></g></g><g fill="#000000" fill-opacity="1"><g transform="translate(339.568383, 181.378105)"><g><path d="M 3.65625 0 L 3.65625 -37.75 L 13.515625 -37.75 L 13.515625 -8.40625 L 29.515625 -8.40625 L 29.515625 0 Z M 3.65625 0 "/></g></g></g><path fill="#9400d3" d="M 30.753906 168.820312 L 30.753906 180.335938 L 18.152344 186.140625 L 18.152344 242.007812 L 30.753906 242.007812 L 30.753906 250.328125 L 0.378906 250.328125 L 0.378906 183.539062 Z M 30.753906 168.820312 " fill-opacity="1" fill-rule="nonzero"/><g clip-path="url(#afd4e18903)"><path fill="#9400d3" d="M 63.695312 123.9375 L 9.554688 151.496094 L 9.554688 172.042969 L 63.695312 144.484375 L 117.84375 172.042969 L 117.84375 151.496094 Z M 63.695312 123.9375 " fill-opacity="1" fill-rule="nonzero"/></g><g clip-path="url(#5d269c32c5)"><path fill="#9400d3" d="M 60.644531 251.121094 L 34.582031 251.121094 L 34.582031 166.957031 L 48.296875 159.941406 L 60.644531 166.957031 Z M 60.644531 251.121094 " fill-opacity="1" fill-rule="nonzero"/></g><path fill="#9400d3" d="M 96.472656 168.820312 L 96.472656 180.335938 L 109.070312 186.140625 L 109.070312 242.007812 L 96.472656 242.007812 L 96.472656 250.328125 L 126.847656 250.328125 L 126.847656 183.539062 Z M 96.472656 168.820312 " fill-opacity="1" fill-rule="nonzero"/><g clip-path="url(#15596e0924)"><path fill="#9400d3" d="M 66.691406 251.121094 L 92.753906 251.121094 L 92.753906 166.957031 L 79.039062 159.941406 L 66.691406 166.957031 Z M 66.691406 251.121094 " fill-opacity="1" fill-rule="nonzero"/></g><g fill="#000000" fill-opacity="1"><g transform="translate(149.81056, 237.115042)"><g><path d="M 29.515625 -15.03125 L 29.46875 -37.75 L 38.625 -37.75 L 38.625 0 L 30 0 L 12.875 -22.5625 L 12.875 0 L 3.65625 0 L 3.65625 -37.75 L 12.328125 -37.75 Z M 29.515625 -15.03125 "/></g></g></g><g fill="#000000" fill-opacity="1"><g transform="translate(192.134509, 237.115042)"><g><path d="M 3.65625 0 L 3.65625 -37.75 L 33.453125 -37.75 L 33.453125 -29.890625 L 13.515625 -29.890625 L 13.515625 -22.84375 L 31.5 -22.84375 L 31.5 -15.03125 L 13.515625 -14.96875 L 13.515625 -7.859375 L 33.984375 -7.859375 L 33.984375 0 Z M 3.65625 0 "/></g></g></g><g fill="#000000" fill-opacity="1"><g transform="translate(228.481421, 237.115042)"><g><path d="M 20.25 -37.75 C 25.0625 -37.75 28.796875 -36.59375 31.453125 -34.28125 C 34.109375 -31.96875 35.4375 -28.707031 35.4375 -24.5 C 35.4375 -20.050781 34.109375 -16.597656 31.453125 -14.140625 C 28.796875 -11.679688 25.0625 -10.453125 20.25 -10.453125 L 13.515625 -10.453125 L 13.515625 0 L 3.65625 0 L 3.65625 -37.75 Z M 19.765625 -18.3125 C 21.773438 -18.3125 23.328125 -18.8125 24.421875 -19.8125 C 25.515625 -20.820312 26.0625 -22.28125 26.0625 -24.1875 C 26.0625 -26.019531 25.515625 -27.425781 24.421875 -28.40625 C 23.328125 -29.394531 21.773438 -29.890625 19.765625 -29.890625 L 13.515625 -29.890625 L 13.515625 -18.3125 Z M 19.765625 -18.3125 "/></g></g></g><g fill="#000000" fill-opacity="1"><g transform="translate(265.097565, 237.115042)"><g><path d="M 41.90625 0 L 31.40625 0 L 28.8125 -6.671875 L 12.5 -6.671875 L 9.859375 0 L -0.265625 0 L 15.9375 -37.75 L 26.0625 -37.75 Z M 20.734375 -27.6875 L 15.453125 -14.21875 L 25.90625 -14.21875 Z M 20.734375 -27.6875 "/></g></g></g><g fill="#000000" fill-opacity="1"><g transform="translate(306.721504, 237.115042)"><g><path d="M 3.65625 0 L 3.65625 -37.75 L 13.515625 -37.75 L 13.515625 -8.40625 L 29.515625 -8.40625 L 29.515625 0 Z M 3.65625 0 "/></g></g></g></svg>